<svg xmlns="http://www.w3.org/2000/svg" viewBox="0 0 630 630">
  <rect fill="#f7df1e" width="100%" height="100%"/>
  <path d="M165.65,526.47l48.21-29.17c9.3,16.49,17.76,30.44,38.06,30.44,19.45,0,31.72-7.61,31.72-37.21V289.23h59.2V491.37c0,61.32-35.94,89.23-88.38,89.23-47.36,0-74.86-24.53-88.81-54.13"/>
  <path d="M375,520.13l48.21-27.91c12.69,20.72,29.18,35.95,58.36,35.95,24.53,0,40.17-12.27,40.17-29.18,0-20.3-16.07-27.49-43.13-39.33l-14.8-6.35c-42.72-18.18-71.05-41-71.05-89.23,0-44.4,33.83-78.23,86.69-78.23,37.64,0,64.71,13.11,84.16,47.36l-46.1,29.6c-10.15-18.18-21.14-25.37-38.06-25.37-17.33,0-28.33,11-28.33,25.37,0,17.77,11,25,36.37,35.95l14.8,6.35c50.32,21.56,78.66,43.55,78.66,93,0,53.29-41.87,82.46-98.11,82.46-55,0-90.5-26.21-107.84-60.47"/>
  <path fill="#464100" d="M136.67,320.83c-3.9,0-7,.76-9.26,2.27a16.83,16.83,0,0,0-5.36,5.69,19.85,19.85,0,0,0-2.44,7.63,72.24,72.24,0,0,0-.49,8.13V394q0,12-3.73,19.34a34.52,34.52,0,0,1-8.78,11.37,30.5,30.5,0,0,1-10.56,5.69A48.7,48.7,0,0,1,87,432.3v1a43.64,43.64,0,0,1,9.1,2.11,33,33,0,0,1,10.56,5.85A36.6,36.6,0,0,1,115.39,452q3.73,6.68,3.73,17.07v52a69.7,69.7,0,0,0,.49,7.8,19.85,19.85,0,0,0,2.44,7.63,16.83,16.83,0,0,0,5.36,5.69c2.28,1.51,5.36,2.27,9.26,2.27h17.56v36.41H113a34.53,34.53,0,0,1-12.51-2.77,43.43,43.43,0,0,1-13-8.12A46,46,0,0,1,77.2,556.29,42,42,0,0,1,73,537V473.9a23.55,23.55,0,0,0-3.25-12.68,27.38,27.38,0,0,0-7.81-8.28,33.09,33.09,0,0,0-9.75-4.55,33.18,33.18,0,0,0-8.77-1.47V418.65a33.53,33.53,0,0,0,8.77-1.46,29,29,0,0,0,17.56-14A27.47,27.47,0,0,0,73,389.4V328.3A42,42,0,0,1,77.2,309a46,46,0,0,1,10.24-13.65,43.43,43.43,0,0,1,13-8.12A34.53,34.53,0,0,1,113,284.42h41.28v36.41Z"/>
</svg>
